<svg xmlns="http://www.w3.org/2000/svg" width="306.142" height="116.371" viewBox="0 0 306.142 116.371"><path fill="#FFF" d="M.938.687v57.5h37.669v57.499h266.957V58.187h-45.5V.687z"/><path d="M38.386 18.3v12.278c0 5.039-2.08 8.639-8.238 8.639-6.199 0-8.238-3.6-8.238-8.639V18.3h4.799v12.278c0 3.359 1.119 4.599 3.439 4.599 2.279 0 3.439-1.28 3.439-4.599V18.3h4.799zm13.041 3.44c4.639 0 6.078 3.56 6.078 7.519v9.519h-4.799v-9.519c0-2.48-.799-3.359-2.479-3.359-1.68 0-2.961 1-2.961 3.28v9.598h-4.799V22.18h3.56l.52 1.8c1.081-1.36 2.68-2.24 4.88-2.24zm12.64-8.599l3.561 3.56-3.561 3.559-3.559-3.559 3.559-3.56zm2.401 9.039v16.597h-4.799V22.18h4.799zm19.877 0l-5.479 16.597h-6.359L69.028 22.18h4.959l3.719 11.918 3.68-11.918h4.959zm9.082-.44c4.559 0 7.518 2.6 7.518 7.639 0 1.16-.039 1.8-.119 2.799H92.667c0 2.24 1.08 3.36 3.439 3.36 1.439 0 3.359-.56 4.279-.96l1.561 3.359c-1.641.8-3.439 1.28-6.199 1.28-5.039 0-7.84-2.6-7.84-7.439v-2.599c0-4.84 2.801-7.439 7.52-7.439zm0 3.479c-1.84 0-2.76 1.16-2.76 3.439v.16h5.559v-.16c0-2.279-.879-3.439-2.799-3.439zm20.238-3.359c.602 0 1.24.08 1.92.24l-.799 4.639a8.26 8.26 0 00-1.6-.16c-1.881 0-3.961 1.04-3.961 4.639v7.559h-4.799V22.18h3.561l.799 2.68c1.041-1.961 2.721-3 4.879-3zm9.441-.12c2.119 0 4.359.52 6.039 1.4l-1.721 3.599c-1-.48-2.6-1.12-4.078-1.12-1.281 0-1.76.44-1.76 1.08 0 .64.359.8 2.559 1.88 3.519 1.72 5.039 2.759 5.039 5.719 0 3.559-3.318 4.919-6.399 4.919-2.719 0-4.439-.48-6.199-1.12l1.4-3.76c1.559.6 3.119 1 4.639 1 1.16 0 1.92-.44 1.92-1.16 0-.84-.68-1.08-2.561-1.96-2.559-1.2-5.158-2.319-5.158-5.399.001-3.439 3.12-5.078 6.28-5.078zm11.881-8.599l3.559 3.56-3.559 3.559-3.561-3.559 3.561-3.56zm2.399 9.039v16.597h-4.799V22.18h4.799zm10.519-3.88v3.879h2.959v3.879h-2.959v6.519c0 1.839.799 2.239 2 2.239.279 0 .52 0 .879-.04l.4 4.2c-.6.08-1.16.12-1.68.12-4.52 0-6.398-2.839-6.398-6.399v-6.639h-2.961V22.18h.801c1.641 0 2.959-.32 3.32-3.879h3.639zm12.799 3.44c4.561 0 7.52 2.6 7.52 7.639 0 1.16-.039 1.8-.119 2.799h-10.158c0 2.24 1.078 3.36 3.439 3.36 1.439 0 3.359-.56 4.279-.96l1.559 3.359c-1.639.8-3.439 1.28-6.199 1.28-5.039 0-7.838-2.6-7.838-7.439v-2.599c-.001-4.84 2.798-7.439 7.517-7.439zm2.201-8.759l2.199 3.439-6.279 3.76-1.92-2.96 6-4.239zm-2.201 12.238c-1.838 0-2.758 1.16-2.758 3.439v.16h5.559v-.16c0-2.279-.881-3.439-2.801-3.439zm-58.83 47.286v23.756h-2.039l-.52-1.76c-1 1.359-2.561 2.199-4.561 2.199-4.279 0-5.918-3.039-5.918-6.398v-4.6c0-3.68 1.959-6.398 6.158-6.398 1.08 0 2.039.24 2.879.561l-.398 2c-.721-.16-1.361-.281-2.121-.281-2.398 0-3.879 1.279-3.879 4.119v4.6c0 2.84 1.48 4.08 3.68 4.08 2.6 0 4.08-1.801 4.08-4.641V72.505h2.639zm11.48 6.799c4.56 0 6.52 2.879 6.52 6.559 0 1.52-.041 2.439-.119 3.279h-10.279v1.16c0 2.84 1.279 4.08 4.279 4.08 1.24 0 2.76-.48 4.32-1.121l.998 2.201c-1.439.639-3.078 1.238-5.318 1.238-5.158 0-6.918-2.719-6.918-6.398v-4.439c0-3.68 1.959-6.559 6.517-6.559zm0 2.241c-2.399 0-3.879 1.398-3.879 4.318v1h7.76v-1c0-2.92-1.48-4.318-3.881-4.318zm23.442-6.04c2.52 0 4.039 1 5.998 2.559 1.561 1.24 2.641 1.68 4.119 1.68 1.201 0 2.4-.439 2.76-3.799h1.959v3.799h3.361v2.24h-3.361v9.199c0 2.318.84 2.998 2.281 2.998a9.59 9.59 0 001.039-.08l.24 2.359c-.359.041-.961.08-1.4.08-3.639 0-4.799-2.279-4.799-5.358v-9.199h-1.52c-2.279 0-3.6-.4-5.76-2.08-1.76-1.359-2.998-2.039-4.639-2.039-2 0-3.279 1.119-3.279 2.959 0 2.16 1.879 2.92 3.68 3.879 3.879 2.041 6.158 3.279 6.199 6.639.039 3.76-2.961 5.359-6.959 5.359-1.84 0-3.641-.359-5.76-1.119l.84-2.279c1.801.639 3.279 1 5.119 1 2.4 0 4.16-.76 4.119-2.92-.039-2.08-2-2.92-4.279-4.199-3.039-1.721-5.6-2.92-5.6-6.158.001-3.6 2.642-5.52 5.642-5.52zm29.558 3.799c1.199 0 2.199.32 2.84.641l-1.08 2.318a5.272 5.272 0 00-2.16-.479c-2.199 0-4.078 1.6-4.078 4.838v9.639h-2.641V79.744h2.041l.6 2.041c1-1.561 2.519-2.481 4.478-2.481zm10.92 0c3.92 0 5.879 2.359 5.879 5.92v11.037h-2.039l-.52-1.799c-1.08 1.238-2.52 2.238-4.719 2.238-3.801 0-5.4-2.238-5.4-5.078 0-4.08 3.359-5.479 10.039-5.519v-.879c0-2.721-1.48-3.6-3.561-3.6-1.68 0-3.119.479-4.438 1.039l-.881-2.16c1.681-.718 3.121-1.199 5.64-1.199zm3.241 8.838c-5.398.08-7.398.84-7.398 3.48 0 2 1.359 2.76 2.918 2.76 2.041 0 4.48-1.041 4.48-4.16v-2.08zm12.201-8.838c1.959 0 3.838.439 5.439 1.24l-1.041 2.199c-1.08-.52-2.559-1.119-4.359-1.119-1.879 0-2.92.84-2.92 2.078 0 1.602 1.4 2.041 3.68 3.16 3.279 1.6 4.84 2.879 4.84 5.398 0 2.961-2.641 4.439-5.92 4.439-2.078 0-3.879-.52-5.438-1.119l.84-2.24c1.559.6 3.119 1 4.559 1 2.398 0 3.318-.799 3.318-2.119 0-1.32-.6-1.92-3.678-3.439-2.801-1.4-4.84-2.199-4.84-5.039 0-2.839 2.639-4.439 5.52-4.439zm12.519-6.799v17.236c0 2.84 1.481 4.641 3.959 4.641 2.32 0 3.799-1.24 3.799-4.08v-4.6c0-2.84-1.359-4.119-3.558-4.119-.84 0-1.641.24-2.16.48l-.92-1.76c1-.6 2.201-1 3.439-1 4.32 0 5.84 3.039 5.84 6.398v4.6c0 3.359-1.92 6.398-6.039 6.398-1.959 0-3.48-.84-4.439-2.158l-.52 1.719h-2.039V72.505h2.638zm21.479 6.799c4.641 0 6.6 2.879 6.6 6.559v4.279c0 3.68-1.959 6.559-6.6 6.559-4.639 0-6.598-2.879-6.598-6.559v-4.279c0-3.68 1.959-6.559 6.598-6.559zm0 2.28c-2.479 0-3.959 1.359-3.959 4.279v4.279c0 2.92 1.48 4.279 3.959 4.279 2.48 0 3.961-1.359 3.961-4.279v-4.279c0-2.92-1.481-4.279-3.961-4.279zm24.32-1.84v16.518h-2.041l-.52-1.76c-1 1.359-2.559 2.199-4.559 2.199-4.279 0-5.92-3.039-5.92-6.398V79.744h2.641v10.559c0 2.84 1.479 4.08 3.68 4.08 2.6 0 4.078-1.801 4.078-4.641v-9.998h2.641zm12.561-.44c1.199 0 2.199.32 2.84.641l-1.08 2.318a5.282 5.282 0 00-2.16-.479c-2.199 0-4.078 1.6-4.078 4.838v9.639h-2.641V79.744h2.039l.602 2.041c.997-1.561 2.519-2.481 4.478-2.481zm10.716 0c1.959 0 3.478.84 4.438 2.16l.522-1.721h2.039v16.758c0 3.92-1.48 7.279-6.799 7.279-1.279 0-2.76-.281-4.359-.801l.84-2.24c1.039.361 2.279.682 3.52.682 3.32 0 4.16-1.92 4.16-4.92V86.263c0-2.84-1.48-4.639-3.961-4.639-2.318 0-3.799 1.238-3.799 4.078v4.6c0 2.84 1.48 4.119 3.68 4.119.84 0 1.519-.24 2.039-.48l.92 1.76c-.92.641-2.08 1-3.318 1-4.32 0-5.959-3.039-5.959-6.398v-4.6c-.002-3.36 1.918-6.399 6.037-6.399z"/><path d="M306.142 57.485h-45.637V0h-70.371v.001H.001v58.886h37.377v57.541h32.541v-.059h236.223V57.485zM259.104 1.4v56.084h-19.576V1.4h19.576zm-20.994 0v56.084h-24.66V1.4h24.66zm-26.078 0v56.084h-9.355V1.4h9.355zm-20.498 0h9.727v56.084h-9.727V1.4zM1.401 1.401h188.693v56.083H68.487l-67.086.003V1.401zm37.377 113.627V58.944h18.951v56.084H38.778zm20.369-56.084h9.34v56.084h-9.34V58.944zm245.594 56.025H69.919V58.887l234.822-.002v56.084z"/></svg>